#!OML:ASF H:\Martial Arts Walks\Project 1\Capture day 1\Session 1\male.ASF
:FULLY-SPECIFIED
:DEGREES
1234
root -2.43417 13.8609 24.9769 6.23133 11.9572 0.843214
lowerback 10.7383 -3.37355 -9.24494
upperback -0.843983 -5.5169 2.76631
thorax -5.78149 -2.3833 9.0006
lowerneck 8.8262 -16.9047 -17.2158
upperneck 5.91176 -24.9756 16.8825
head 4.66241 -12.7504 6.57473
rclavicle -1.81764e-014 2.98177e-014
rhumerus -33.2805 14.7906 -73.0336
rradius 41.7299
rwrist 1.69213
rhand -10.538 -38.8309
rfingers 7.12502
rthumb 15.4655 -68.2323
lclavicle -1.81764e-014 2.98177e-014
lhumerus -24.9396 -10.5292 87.875
lradius 40.7686
lwrist -7.1815
lhand -25.8943 21.8423
lfingers 7.12502
lthumb 0.647846 51.821
rfemur -63.4015 -11.5522 15.3836
rtibia 71.8378
rfoot -12.0522 14.9569
rtoes 1.71024
lfemur 13.5471 2.29423 -13.8986
ltibia 34.6843
lfoot -32.9849 38.6703
ltoes -21.2658
1235
root -2.43583 13.8623 24.9746 6.30408 11.9478 0.881443
lowerback 10.7772 -3.32424 -9.1784
upperback -0.810057 -5.44507 2.75479
thorax -5.78946 -2.35067 8.9435
lowerneck 8.81618 -16.8541 -17.1733
upperneck 5.83852 -24.8872 16.8614
head 4.61825 -12.7066 6.57828
rclavicle -1.83627e-014 6.95746e-015
rhumerus -33.1293 14.8173 -72.9507
rradius 41.9024
rwrist 1.65054
rhand -10.6649 -38.6581
rfingers 7.12502
rthumb 15.3433 -68.0689
lclavicle -1.83627e-014 6.95746e-015
lhumerus -24.8733 -10.5787 87.8592
lradius 40.8714
lwrist -7.13028
lhand -25.9948 21.7922
lfingers 7.12502
lthumb 0.550774 51.7712
rfemur -63.4821 -11.5631 15.3702
rtibia 71.8243
rfoot -12.0697 14.9486
rtoes 1.57727
lfemur 13.4762 2.29624 -13.9401
ltibia 34.6795
lfoot -33.0143 38.6316
ltoes -21.1832
1236
root -2.4382 13.8627 24.9736 6.35865 11.9398 0.903186
lowerback 10.7813 -3.25989 -9.08575
upperback -0.777515 -5.34701 2.73846
thorax -5.78734 -2.30664 8.85979
lowerneck 8.88218 -16.7983 -17.1834
upperneck 5.81145 -24.8123 16.8467
head 4.58595 -12.6735 6.59376
rclavicle 8.42723e-014 4.47266e-015
rhumerus -33.0006 14.7828 -72.8453
rradius 42.1184
rwrist 1.78017
rhand -10.4945 -38.7818
rfingers 7.12502
rthumb 15.5074 -68.18
lclavicle 8.42723e-014 4.47266e-015
lhumerus -24.8135 -10.6196 87.869
lradius 40.9522
lwrist -7.11545
lhand -25.9125 21.909
lfingers 7.12502
lthumb 0.630235 51.8878
rfemur -63.5351 -11.5525 15.3552
rtibia 71.8159
rfoot -12.0414 14.9558
rtoes 1.6912
lfemur 13.434 2.3311 -13.9409
ltibia 34.6593
lfoot -32.9773 38.6406
ltoes -21.2526
1237
root -2.44051 13.8657 24.9739 6.38201 11.9417 0.948119
lowerback 10.8141 -3.20109 -9.03586
upperback -0.683058 -5.26172 2.72564
thorax -5.72777 -2.27358 8.80453
lowerneck 8.77563 -16.7558 -17.1248
upperneck 5.80854 -24.7257 16.7902
head 4.57216 -12.6246 6.57257
rclavicle -3.16192e-014 3.08116e-014
rhumerus -32.7679 14.8489 -72.7561
rradius 42.3464
rwrist 1.64414
rhand -10.8853 -38.6875
rfingers 7.12502
rthumb 15.131 -68.1144
lclavicle -3.16192e-014 3.08116e-014
lhumerus -24.6429 -10.6526 87.8479
lradius 41.0059
lwrist -7.08103
lhand -25.9173 21.9027
lfingers 7.12502
lthumb 0.625626 51.8816
rfemur -63.5368 -11.5591 15.3149
rtibia 71.7987
rfoot -12.0171 14.9815
rtoes 1.9767
lfemur 13.4272 2.36614 -13.9525
ltibia 34.6186
lfoot -33.0158 38.5301
ltoes -21.2735
1238
root -2.44237 13.8655 24.9736 6.41931 11.9339 1.00049
lowerback 10.8712 -3.16422 -9.00526
upperback -0.636823 -5.212 2.71876
thorax -5.72395 -2.25186 8.77624
lowerneck 8.75678 -16.6681 -17.1026
upperneck 5.81053 -24.5928 16.7314
head 4.54233 -12.5582 6.57025
rclavicle -3.5657e-014 -7.15625e-015
rhumerus -32.5108 14.9522 -72.6716
rradius 42.4822
rwrist 1.77691
rhand -10.352 -38.9477
rfingers 7.12502
rthumb 15.6447 -68.3351
lclavicle -3.5657e-014 -7.15625e-015
lhumerus -24.6175 -10.6105 87.8208
lradius 41.1248
lwrist -7.06088
lhand -25.8457 22.1181
lfingers 7.12502
lthumb 0.694743 52.0967
rfemur -63.5637 -11.5741 15.2712
rtibia 71.7859
rfoot -12.0099 15.0157
rtoes 2.1519
lfemur 13.4116 2.41457 -13.9738
ltibia 34.5882
lfoot -32.9246 38.5354
ltoes -21.3725
1239
root -2.44551 13.8672 24.9716 6.471 11.9407 1.03729
lowerback 10.905 -3.10971 -8.92565
upperback -0.576321 -5.13044 2.69919
thorax -5.70357 -2.21768 8.69918
lowerneck 8.72388 -16.6126 -17.0708
upperneck 5.8693 -24.5063 16.6591
head 4.53717 -12.5129 6.55293
rclavicle 2.66868e-014 1.16289e-014
rhumerus -32.2215 15.0474 -72.5996
rradius 42.5773
rwrist 1.76206
rhand -10.5071 -38.8046
rfingers 7.12502
rthumb 15.4953 -68.2037
lclavicle 2.66868e-014 1.16289e-014
lhumerus -24.51 -10.6256 87.8063
lradius 41.1829
lwrist -7.03504
lhand -25.8509 22.2152
lfingers 7.12502
lthumb 0.689703 52.1938
rfemur -63.6092 -11.5845 15.2495
rtibia 71.7659
rfoot -12.0034 15.0096
rtoes 2.23145
lfemur 13.3508 2.47887 -13.9583
ltibia 34.5906
lfoot -32.889 38.476
ltoes -21.351
1240
root -2.44894 13.8714 24.9686 6.52803 11.9518 0.993448
lowerback 10.9297 -3.04325 -8.76025
upperback -0.512932 -5.01884 2.71325
thorax -5.68485 -2.17081 8.60506
lowerneck 8.68749 -16.5424 -17.107
upperneck 5.91213 -24.4091 16.6486
head 4.54234 -12.4633 6.56264
rclavicle 1.22004e-014 2.88238e-015
rhumerus -31.9174 15.1287 -72.4945
rradius 42.6871
rwrist 1.61997
rhand -10.6496 -38.7167
rfingers 7.12502
rthumb 15.358 -68.1264
lclavicle 1.22004e-014 2.88238e-015
lhumerus -24.3564 -10.7267 87.8315
lradius 41.2045
lwrist -7.02893
lhand -25.8546 22.1358
lfingers 7.12502
lthumb 0.686129 52.1144
rfemur -63.6609 -11.5577 15.3154
rtibia 71.7283
rfoot -11.9862 14.9803
rtoes 2.25862
lfemur 13.2511 2.53089 -13.8593
ltibia 34.5925
lfoot -32.9073 38.3721
ltoes -21.3817
1241
root -2.4535 13.8739 24.9638 6.6147 11.965 1.02905
lowerback 10.999 -3.01961 -8.73415
upperback -0.468926 -4.98726 2.72485
thorax -5.68417 -2.15734 8.60264
lowerneck 8.63386 -16.4217 -17.1054
upperneck 5.98215 -24.2359 16.5872
head 4.53415 -12.375 6.56161
rclavicle 1.88845e-014 -2.68359e-014
rhumerus -31.5395 15.3736 -72.4436
rradius 42.8135
rwrist 1.61651
rhand -10.3508 -38.9846
rfingers 7.12502
rthumb 15.6458 -68.3719
lclavicle 1.88845e-014 -2.68359e-014
lhumerus -24.2728 -10.6536 87.7913
lradius 41.2831
lwrist -6.96543
lhand -25.8801 22.1557
lfingers 7.12502
lthumb 0.661528 52.1344
rfemur -63.7547 -11.5448 15.3025
rtibia 71.7015
rfoot -11.9362 14.9428
rtoes 2.42928
lfemur 13.119 2.60946 -13.8265
ltibia 34.6159
lfoot -32.9416 38.2215
ltoes -21.3897
1242
root -2.45708 13.8758 24.9623 6.65034 12.011 1.09779
lowerback 11.0982 -2.98469 -8.68717
upperback -0.393247 -4.94008 2.71997
thorax -5.67265 -2.13874 8.56913
lowerneck 8.46028 -16.3373 -17.1014
upperneck 6.16044 -24.1005 16.4411
head 4.57336 -12.2984 6.51461
rclavicle -1.99033e-014 -2.44505e-014
rhumerus -31.0866 15.5647 -72.3763
rradius 42.7617
rwrist 1.46824
rhand -10.7579 -38.827
rfingers 7.12502
rthumb 15.2537 -68.2446
lclavicle -1.99033e-014 -2.44505e-014
lhumerus -24.082 -10.6808 87.7909
lradius 41.2561
lwrist -6.92386
lhand -25.8755 22.3211
lfingers 7.12502
lthumb 0.665991 52.2998
rfemur -63.7751 -11.5972 15.2447
rtibia 71.697
rfoot -11.9339 14.9321
rtoes 2.38641
lfemur 13.0701 2.62857 -13.8467
ltibia 34.6174
lfoot -32.8697 38.2087
ltoes -21.5253
1243
root -2.46181 13.8774 24.9591 6.70605 12.0462 1.13736
lowerback 11.1963 -2.94183 -8.61376
upperback -0.350943 -4.8798 2.71743
thorax -5.70087 -2.11066 8.52323
lowerneck 8.5033 -16.2134 -17.1491
upperneck 6.19843 -23.9374 16.4041
head 4.55122 -12.221 6.53526
rclavicle 2.03754e-014 -2.52457e-014
rhumerus -30.798 15.7487 -72.3273
rradius 42.9202
rwrist 1.39714
rhand -10.8201 -38.8303
rfingers 7.12502
rthumb 15.1938 -68.2525
lclavicle 2.03754e-014 -2.52457e-014
lhumerus -24.0383 -10.6686 87.7913
lradius 41.337
lwrist -6.93847
lhand -25.904 22.3643
lfingers 7.12502
lthumb 0.638428 52.3431
rfemur -63.8377 -11.6123 15.2243
rtibia 71.7016
rfoot -11.9191 14.9085
rtoes 2.39332
lfemur 13.0003 2.69314 -13.8126
ltibia 34.5935
lfoot -32.8581 38.0841
ltoes -21.6042
1244
root -2.46622 13.8797 24.9576 6.76369 12.0985 1.26355
lowerback 11.2727 -2.88459 -8.59791
upperback -0.27017 -4.80634 2.68643
thorax -5.67603 -2.07944 8.47321
lowerneck 8.42432 -16.1191 -17.1772
upperneck 6.31984 -23.8012 16.3128
head 4.56918 -12.1497 6.51917
rclavicle 3.79927e-014 -9.93923e-015
rhumerus -30.3479 15.9081 -72.23
rradius 42.9501
rwrist 1.39796
rhand -10.5809 -38.9977
rfingers 7.12502
rthumb 15.4242 -68.4022
lclavicle 3.79927e-014 -9.93923e-015
lhumerus -23.8725 -10.708 87.8089
lradius 41.3531
lwrist -6.97144
lhand -25.8965 22.3235
lfingers 7.12502
lthumb 0.64567 52.3022
rfemur -63.8776 -11.6728 15.1092
rtibia 71.7209
rfoot -11.8975 14.8947
rtoes 2.49329
lfemur 12.9524 2.67842 -13.9072
ltibia 34.5496
lfoot -32.793 38.0629
ltoes -21.6333
1245
root -2.47081 13.8805 24.9601 6.79953 12.1367 1.39604
lowerback 11.2959 -2.83935 -8.606
upperback -0.16463 -4.74719 2.64772
thorax -5.59047 -2.05943 8.42409
lowerneck 8.23897 -16.0328 -17.1572
upperneck 6.58382 -23.6623 16.1012
head 4.62628 -12.0705 6.44789
rclavicle -5.74736e-014 9.93923e-016
rhumerus -29.9209 16.0811 -72.1866
rradius 43.0141
rwrist 1.26896
rhand -10.7624 -38.9273
rfingers 7.12502
rthumb 15.2494 -68.3452
lclavicle -5.74736e-014 9.93923e-016
lhumerus -23.7988 -10.7535 87.7948
lradius 41.459
lwrist -6.92757
lhand -25.917 22.3647
lfingers 7.12502
lthumb 0.625936 52.3436
rfemur -63.9015 -11.718 14.9814
rtibia 71.7541
rfoot -11.9275 14.8703
rtoes 2.4476
lfemur 12.9622 2.69992 -13.9904
ltibia 34.4942
lfoot -32.7596 38.0054
ltoes -21.7007
